<?xml version="1.0" encoding="UTF-8" standalone="no"?>
<!-- Created with Inkscape (http://www.inkscape.org/) -->

<svg
   width="377.95276"
   height="377.95276"
   viewBox="0 0 100 100"
   version="1.1"
   id="svg1"
   inkscape:version="1.4 (e7c3feb100, 2024-10-09)"
   sodipodi:docname="icon_white.svg"
   inkscape:export-filename="icon_white.png"
   inkscape:export-xdpi="65.024002"
   inkscape:export-ydpi="65.024002"
   xmlns:inkscape="http://www.inkscape.org/namespaces/inkscape"
   xmlns:sodipodi="http://sodipodi.sourceforge.net/DTD/sodipodi-0.dtd"
   xmlns="http://www.w3.org/2000/svg"
   xmlns:svg="http://www.w3.org/2000/svg">
  <sodipodi:namedview
     id="namedview1"
     pagecolor="#ffffff"
     bordercolor="#000000"
     borderopacity="0.25"
     inkscape:showpageshadow="2"
     inkscape:pageopacity="0.0"
     inkscape:pagecheckerboard="true"
     inkscape:deskcolor="#d1d1d1"
     inkscape:document-units="mm"
     inkscape:zoom="2.0157702"
     inkscape:cx="162.22087"
     inkscape:cy="209.34926"
     inkscape:window-width="1920"
     inkscape:window-height="1011"
     inkscape:window-x="1680"
     inkscape:window-y="152"
     inkscape:window-maximized="1"
     inkscape:current-layer="g13" />
  <defs
     id="defs1" />
  <g
     inkscape:label="Calque 1"
     inkscape:groupmode="layer"
     id="layer1"
     transform="translate(-68.447495,-76.107083)">
    <g
       id="g13"
       transform="matrix(0.32821174,0,0,0.32821174,82.008587,73.706955)"
       style="display:inline">
      <path
         style="fill:#ffffff;fill-opacity:0.504511;stroke-width:0.581212"
         d="m 50.359379,123.26237 c 1.767247,-3.60048 56.952381,-85.450985 60.233811,-87.014948 2.92398,-1.393618 7.39619,-0.72007 10.32019,0.673548 3.28141,1.563962 47.87116,61.587061 49.6384,65.18753 3.88039,7.90569 31.85084,70.93097 32.02503,87.16212 0.96631,90.04547 -79.03768,108.76584 -79.01147,92.46 l 0.0606,-37.73325 v -11.2984 -11.29843 l 15.53528,-15.82294 15.53529,-15.82297 4.35983,0.18542 c 3.78511,0.16096 4.7783,-0.0233 7.53393,-1.39709 10.94084,-5.45476 10.89656,-21.53742 -0.0743,-27.0072 -10.59123,-5.28045 -22.75071,3.34033 -21.38715,15.16303 l 0.35579,3.0849 -10.92931,11.12586 -10.92933,11.12585 v -29.20909 -29.20909 l 3.07367,-3.058 c 6.33089,-6.2986 6.63652,-15.05568 0.74823,-21.43771 -3.06086,-3.31754 -5.82482,-4.46845 -10.73096,-4.46845 -4.90615,0 -7.6701,1.15091 -10.73098,4.46845 -5.88827,6.38203 -5.58263,15.13911 0.74823,21.43771 l 3.07366,3.058 v 41.82354 41.82355 l -10.803954,-10.99827 -10.803989,-10.99828 0.0036,-4.83733 c 0.0036,-5.46892 -1.033815,-8.14994 -4.397007,-11.37225 -3.279697,-3.1423 -5.487394,-4.00276 -10.270101,-4.00276 -4.782726,0 -6.990423,0.86046 -10.27012,4.00276 -3.255552,3.11912 -4.384971,5.93571 -4.384971,10.93526 0,5.25692 1.258389,8.15706 4.928387,11.35827 3.260478,2.84398 7.265632,4.14176 11.417386,3.69956 l 3.254252,-0.34661 14.364056,14.64635 14.364251,14.64636 -0.62487,38.80776 c -42.813824,-0.0438 -81.944184,-26.6989 -79.36585,-79.12801 -0.434694,-31.67993 8.076463,-53.13639 23.140489,-80.41475 z"
         id="path5"
         sodipodi:nodetypes="sssssscccccscsscccccsssssccccccssssssccccss" />
      <g
         id="g7"
         style="stroke-width:7.22176;stroke-dasharray:none">
        <path
           d="m 116.82196,33.564308 c 0,0 -90.63938,102.506472 -90.63938,171.078602 0,46.91776 41.50418,79.3993 90.22648,79.3993 48.7223,0 90.22648,-32.48154 90.22648,-79.3993 0,-68.57213 -89.81358,-171.078602 -89.81358,-171.078602 z"
           fill="none"
           stroke="#1D9E75"
           stroke-width="2.5"
           style="color:#0b0b0b;font-weight:400;font-size:16px;font-family:anthropic-sans, '-apple-system', BlinkMacSystemFont, 'Segoe UI', sans-serif;dominant-baseline:auto;text-anchor:start;opacity:1;fill:none;stroke:#ffffff;stroke-width:18.5702;stroke-linecap:round;stroke-linejoin:round;stroke-dasharray:none;stroke-opacity:1;paint-order:stroke fill markers"
           id="path14"
           sodipodi:nodetypes="csssc" />
        <path
           style="fill:#378add;fill-opacity:1;stroke:#ffffff;stroke-width:9.30849;stroke-linecap:round;stroke-linejoin:round;stroke-dasharray:none;stroke-opacity:1;paint-order:stroke fill markers"
           d="M 51.808542,128.0781 22.085666,140.9882 Z"
           id="path6"
           sodipodi:nodetypes="ccc" />
        <path
           style="fill:#378add;fill-opacity:1;stroke:#ffffff;stroke-width:9.30849;stroke-linecap:round;stroke-linejoin:round;stroke-dasharray:none;stroke-opacity:1;paint-order:stroke fill markers"
           d="M 51.808542,128.0781 57.2802,157.47775 Z"
           id="path7"
           sodipodi:nodetypes="ccc" />
        <path
           style="fill:#1d9e75;fill-opacity:1;stroke:#ffffff;stroke-width:9.30849;stroke-linecap:round;stroke-linejoin:round;stroke-dasharray:none;stroke-opacity:1;paint-order:stroke fill markers"
           d="m 186.69182,254.86948 30.96096,-9.56758 z"
           id="path6-3"
           sodipodi:nodetypes="ccc" />
        <path
           style="fill:#1d9e75;fill-opacity:1;stroke:#ffffff;stroke-width:9.30849;stroke-linecap:round;stroke-linejoin:round;stroke-dasharray:none;stroke-opacity:1;paint-order:stroke fill markers"
           d="m 186.69182,254.86948 -2.20965,-29.82276 z"
           id="path7-6"
           sodipodi:nodetypes="ccc" />
      </g>
    </g>
  </g>
</svg>
